<svg width="24" height="24" viewBox="0 0 24 24" fill="none" xmlns="http://www.w3.org/2000/svg">
<g clip-path="url(#clip0_27_111)">
<path d="M18.8 13.768V11.893C18.8 11.88 18.801 11.865 18.801 11.849C18.801 11.712 18.781 11.579 18.744 11.454L18.746 11.464C18.71 11.3573 18.6034 11.304 18.426 11.304C18.2487 11.304 18.1594 11.5007 18.158 11.894V12.054C18.132 12.299 18.116 12.583 18.116 12.871C18.116 13.416 18.17 13.948 18.273 14.463L18.264 14.412C18.3 14.4833 18.38 14.519 18.504 14.519C18.511 14.52 18.519 14.52 18.527 14.52C18.629 14.52 18.715 14.453 18.744 14.36V14.358C18.779 14.233 18.799 14.088 18.799 13.94C18.799 13.918 18.799 13.897 18.798 13.875V13.878L18.8 13.768ZM14.193 10.446C14.195 10.421 14.196 10.393 14.196 10.364C14.196 10.201 14.166 10.045 14.11 9.901L14.113 9.91C14.0597 9.80333 13.908 9.75 13.658 9.75V14.25C13.908 14.25 14.0597 14.1877 14.113 14.063C14.165 13.907 14.196 13.727 14.196 13.54C14.196 13.507 14.195 13.475 14.193 13.442V13.446V10.446ZM24 2.572C24 2.559 24 2.543 24 2.527C24 1.831 23.713 1.201 23.251 0.751L23.25 0.75C22.799 0.287 22.17 0 21.473 0C21.457 0 21.442 0 21.426 0H21.428H2.57005C2.55705 0 2.54205 0 2.52605 0C1.82905 0 1.19905 0.287 0.749047 0.75L0.748047 0.751C0.285047 1.202 -0.00195312 1.831 -0.00195312 2.528V2.574V2.572V21.43V21.473C-0.00195312 22.169 0.285047 22.799 0.747047 23.249L0.748047 23.25C1.19905 23.713 1.82805 24 2.52505 24H2.57205H2.57005H21.428H21.473C22.169 24 22.799 23.713 23.249 23.251L23.25 23.25C23.713 22.799 24 22.17 24 21.473C24 21.458 24 21.443 24 21.428V21.43V2.572ZM5.20005 8.572V15.43H3.42905V8.573L5.20005 8.572ZM11.254 8.572V15.43H9.75105V10.769L9.11105 15.43H7.98305L7.34305 10.876V15.43H5.78605V8.573H8.08905C8.19571 9.25167 8.33871 10.3053 8.51805 11.734L8.57205 11.788L8.94705 8.574L11.254 8.572ZM15.914 10.982V12.428C15.919 12.557 15.921 12.707 15.921 12.859C15.921 13.463 15.879 14.057 15.799 14.638L15.807 14.571C15.707 14.954 15.399 15.246 15.013 15.32L15.007 15.321C14.459 15.395 13.825 15.437 13.182 15.437C13.014 15.437 12.846 15.434 12.68 15.428L12.704 15.429H11.904V8.572H13.404C13.472 8.57 13.552 8.568 13.632 8.568C14.063 8.568 14.484 8.608 14.892 8.686L14.85 8.679C15.349 8.787 15.731 9.188 15.809 9.69L15.81 9.697C15.881 9.993 15.922 10.333 15.922 10.682C15.922 10.731 15.921 10.78 15.92 10.828V10.821L15.914 10.982ZM20.522 11.942H20.464V13.871C20.466 13.915 20.468 13.967 20.468 14.019C20.468 14.369 20.408 14.705 20.298 15.017L20.304 14.996C20.125 15.289 19.806 15.481 19.443 15.481C19.407 15.481 19.371 15.479 19.336 15.475H19.34C19.329 15.475 19.317 15.475 19.305 15.475C18.857 15.475 18.453 15.291 18.162 14.995L18.108 15.424H16.5V8.567H18.16V10.817C18.432 10.503 18.831 10.306 19.277 10.306C19.308 10.306 19.339 10.307 19.37 10.309H19.366C19.397 10.306 19.432 10.304 19.468 10.304C19.818 10.304 20.126 10.486 20.301 10.76L20.303 10.764C20.444 11.052 20.526 11.39 20.526 11.748C20.526 11.817 20.523 11.885 20.517 11.952L20.518 11.943L20.522 11.942Z" fill="black"/>
</g>
<defs>
<clipPath id="clip0_27_111">
<rect width="24" height="24" fill="white"/>
</clipPath>
</defs>
</svg>
