<svg width="24" height="24" viewBox="0 0 24 24" fill="none" xmlns="http://www.w3.org/2000/svg">
<path fill-rule="evenodd" clip-rule="evenodd" d="M23.988 6.51941C23.88 8.81474 22.2492 11.9587 19.0932 15.9489C15.8304 20.1164 13.0692 22.2003 10.8108 22.2003C9.4116 22.2003 8.2284 20.9288 7.2612 18.3864L5.3244 11.3938C4.6068 8.85028 3.8364 7.5782 3.012 7.5782C2.832 7.5782 2.2044 7.9498 1.1292 8.69206L0 7.26179C1.1832 6.23705 2.3484 5.21211 3.4956 4.18855C5.0736 2.84586 6.2568 2.14013 7.0452 2.06921C8.91 1.8931 10.0572 3.14615 10.488 5.83035C10.9536 8.72729 11.2764 10.5276 11.4564 11.2344C11.994 13.6362 12.5856 14.8368 13.2312 14.8368C13.7328 14.8368 14.4864 14.0602 15.4896 12.5059C16.494 10.9517 17.0316 9.76833 17.1036 8.95632C17.2464 7.61364 16.7088 6.94363 15.4896 6.94363C14.916 6.94363 14.3244 7.06691 13.7148 7.31394C14.898 3.53526 17.1576 1.69799 20.4924 1.80437C22.9656 1.87529 24.132 3.44635 23.988 6.51941Z" fill="black"/>
</svg>
